<?xml version="1.0" encoding="UTF-8" standalone="no"?>
<!-- Created with Inkscape (http://www.inkscape.org/) -->

<svg
   xmlns:dc="http://purl.org/dc/elements/1.1/"
   xmlns:cc="http://creativecommons.org/ns#"
   xmlns:rdf="http://www.w3.org/1999/02/22-rdf-syntax-ns#"
   xmlns:svg="http://www.w3.org/2000/svg"
   xmlns="http://www.w3.org/2000/svg"
   xmlns:sodipodi="http://sodipodi.sourceforge.net/DTD/sodipodi-0.dtd"
   xmlns:inkscape="http://www.inkscape.org/namespaces/inkscape"
   width="382.09189mm"
   height="82.876038mm"
   viewBox="0 0 382.09189 82.876038"
   version="1.1"
   id="svg5015"
   inkscape:version="0.92.2 5c3e80d, 2017-08-06"
   sodipodi:docname="logo3.svg"
   inkscape:export-filename="/Users/bebatut/Documents/com/StreetScienceCommunity/branding/logo/logo3.png"
   inkscape:export-xdpi="90"
   inkscape:export-ydpi="90">
  <defs
     id="defs5009" />
  <sodipodi:namedview
     id="base"
     pagecolor="#820325"
     bordercolor="#666666"
     borderopacity="1.0"
     inkscape:pageopacity="1"
     inkscape:pageshadow="2"
     inkscape:zoom="0.35"
     inkscape:cx="836.34914"
     inkscape:cy="199.4733"
     inkscape:document-units="mm"
     inkscape:current-layer="g4919"
     showgrid="false"
     fit-margin-top="5"
     fit-margin-bottom="5"
     fit-margin-right="5"
     fit-margin-left="5"
     inkscape:window-width="1280"
     inkscape:window-height="755"
     inkscape:window-x="0"
     inkscape:window-y="1"
     inkscape:window-maximized="1"
     inkscape:pagecheckerboard="false" />
  <metadata
     id="metadata5012">
    <rdf:RDF>
      <cc:Work
         rdf:about="">
        <dc:format>image/svg+xml</dc:format>
        <dc:type
           rdf:resource="http://purl.org/dc/dcmitype/StillImage" />
        <dc:title></dc:title>
      </cc:Work>
    </rdf:RDF>
  </metadata>
  <g
     inkscape:label="Layer 1"
     inkscape:groupmode="layer"
     id="layer1"
     transform="translate(128.67988,-28.020315)">
    <g
       id="g4919"
       transform="translate(78.975531,123.59306)">
      <flowRoot
         xml:space="preserve"
         id="flowRoot9373"
         style="font-style:normal;font-weight:normal;font-size:53.33333206px;line-height:100%;font-family:sans-serif;text-align:center;letter-spacing:0px;word-spacing:0px;text-anchor:middle;fill:#fafaf0;fill-opacity:1;stroke:none;stroke-width:1px;stroke-linecap:butt;stroke-linejoin:miter;stroke-opacity:1"
         transform="matrix(0.47869129,0.00106841,-0.00106841,0.47869129,-413.3417,-321.20297)"><flowRegion
           id="flowRegion9375"
           style="line-height:100%;text-align:center;text-anchor:middle;fill:#fafaf0;fill-opacity:1;stroke:none;stroke-opacity:1"><rect
             id="rect9377"
             width="892.17139"
             height="309.99628"
             x="470"
             y="510.8775"
             style="line-height:100%;text-align:center;text-anchor:middle;fill:#fafaf0;fill-opacity:1;stroke:none;stroke-opacity:1" /></flowRegion><flowPara
           id="flowPara4890"
           style="font-style:normal;font-variant:normal;font-weight:normal;font-stretch:normal;line-height:100%;font-family:'Fresh Marker';-inkscape-font-specification:'Fresh Marker';text-align:center;text-anchor:middle;fill:#fafaf0;fill-opacity:1;stroke:none;stroke-opacity:1">Street Science Community</flowPara></flowRoot>      <flowRoot
         xml:space="preserve"
         id="flowRoot9373-7"
         style="font-style:normal;font-weight:normal;font-size:53.33333206px;line-height:100%;font-family:sans-serif;text-align:center;letter-spacing:0px;word-spacing:0px;text-anchor:middle;fill:#323232;fill-opacity:1;stroke:none;stroke-width:1px;stroke-linecap:butt;stroke-linejoin:miter;stroke-opacity:1"
         transform="matrix(0.38550829,8.6042793e-4,-8.6042793e-4,0.38550829,-405.74166,-245.52151)"><flowRegion
           id="flowRegion9375-9"
           style="line-height:100%;text-align:center;text-anchor:middle;fill:#323232;fill-opacity:1"><rect
             id="rect9377-3"
             width="1301.0945"
             height="246.43463"
             x="470"
             y="510.8775"
             style="line-height:100%;text-align:center;text-anchor:middle;fill:#323232;fill-opacity:1" /></flowRegion><flowPara
           id="flowPara9383-8"
           style="font-style:normal;font-variant:normal;font-weight:normal;font-stretch:normal;line-height:100%;font-family:'Fresh Marker';-inkscape-font-specification:'Fresh Marker';text-align:center;text-anchor:middle;fill:#323232;fill-opacity:1">BrinG Science to the &quot;Street&quot;</flowPara></flowRoot>    </g>
    <g
       transform="matrix(1.4454589,0.07264105,-0.07264105,1.4454589,-128.53632,37.522578)"
       id="g4771">
      <g
         id="g9333"
         transform="matrix(0.82815157,-0.04719329,0.04719329,0.82815157,1.3254606,-4.287621)">
        <path
           sodipodi:nodetypes="cccccccccccccccccsccccc"
           inkscape:connector-curvature="0"
           id="path9324"
           d="m 26.139065,1.9624092 11.818869,0.046168 1.523527,6.0479363 3.924234,1.6158621 5.540096,-3.1393886 8.448646,8.448645 -3.231723,5.586264 1.708196,3.831899 6.047938,1.615862 0.138502,11.957371 -6.18644,1.615862 -1.61586,3.924234 3.139387,5.401593 -8.35631,8.587149 -5.355427,-3.139389 -4.247405,1.431191 -4.37129,-10.088983 C 45.411189,41.508336 47.074157,32.531432 44.083229,25.908104 42.119674,21.559865 38.150304,18.22601 33.315504,17.925149 L 33.253014,10.00907 30.886911,9.9561241 C 30.262772,6.4404257 28.047642,4.7318522 25.71331,3.7005668 Z"
           style="fill:#fafaf0;fill-opacity:1;fill-rule:evenodd;stroke:none;stroke-width:1.38189971;stroke-linecap:butt;stroke-linejoin:miter;stroke-miterlimit:4;stroke-dasharray:none;stroke-opacity:1" />
        <path
           sodipodi:nodetypes="cccccccccccc"
           inkscape:connector-curvature="0"
           id="path9326"
           d="m 15.089723,11.955769 15.712255,0.117314 v 4.986086 l -4.662913,0.04617 -0.138502,14.727419 2.092277,4.56885 9.218751,20.130741 c 1.417115,3.012871 -0.06171,4.481243 -2.308374,5.540096 H 5.2252059 C 3.4990146,61.86573 1.6275927,61.931321 1.8088131,58.148209 L 13.989363,32.651281 Z"
           style="fill:#fafaf0;fill-opacity:1;fill-rule:evenodd;stroke:none;stroke-width:1.38189971;stroke-linecap:butt;stroke-linejoin:miter;stroke-miterlimit:4;stroke-dasharray:none;stroke-opacity:1" />
        <path
           sodipodi:nodetypes="ccccccccccc"
           inkscape:connector-curvature="0"
           id="path9328"
           d="M 28.931341,11.955769 C 29.214337,7.7448564 24.33129,2.6326551 18.027802,6.3407727 L 19.636803,5.4788124 C 15.899044,-1.287505 6.7806091,3.4662721 6.9283909,8.3647831 L 7.058973,31.934708 c -0.1497348,4.713074 4.24684,3.633129 3.917439,-0.06529 l 0.06529,-11.752316 0.06529,21.023589 c -0.02944,3.922533 4.055843,3.14769 3.982729,0.391743 V 11.955769 Z"
           style="fill:#fafaf0;fill-opacity:1;fill-rule:evenodd;stroke:#820325;stroke-width:1.38189971;stroke-linecap:butt;stroke-linejoin:miter;stroke-miterlimit:4;stroke-dasharray:none;stroke-opacity:1" />
      </g>
      <path
         sodipodi:nodetypes="ccccccccccccccccccccsccccccccccccccccccccccccccccccccccccccccccccccccscccccccccccccc"
         style="fill:#fafaf0;fill-opacity:1;stroke-width:0.20916608"
         id="path2"
         d="m 28.084635,24.916426 c 0.05922,-0.600407 -0.01248,-1.347499 -0.06349,-1.734271 -0.02286,-0.198524 -0.0547,-0.441468 -0.0995,-0.76089 -9.3e-4,-0.0059 -0.0026,-0.01208 -0.0038,-0.018 -0.0073,-0.04765 -0.09476,-0.616662 -0.04191,-1.344181 0.0016,-0.02322 0.0035,-0.04636 0.0051,-0.06958 5.5e-4,-0.0039 8.04e-4,-0.0076 0.0011,-0.01144 0.0153,-0.190775 0.04022,-0.389071 0.07855,-0.589844 l 0.0026,0.0043 c 0.06682,-0.344609 0.173775,-0.699211 0.337466,-1.034311 l -0.0043,-0.0072 c 0.190657,-0.389988 0.46071,-0.750455 0.837326,-1.037213 l 2.981696,4.938492 c -0.430149,0.203759 -0.869686,0.282703 -1.295929,0.277638 L 28.561787,19.79049 c -0.14838,0.384739 -0.224745,0.790015 -0.26074,1.161388 l 1.452994,2.406577 c -0.527964,-0.156954 -0.994207,-0.396618 -1.339837,-0.606483 0.109518,0.596999 0.125534,1.137077 0.11582,1.516772 0.05061,0.02149 0.10231,0.04279 0.154997,0.06328 1.531086,0.599497 3.009052,0.512483 4.274474,-0.251528 1.318603,-0.79612 2.100269,-2.076068 2.260078,-3.700856 0.031,-0.311669 0.03549,-0.607337 0.02561,-0.873801 -0.0029,-0.429736 -0.0289,-1.008995 -0.17678,-1.586984 -0.0016,-0.0058 -0.0025,-0.0122 -0.0035,-0.0181 -0.0078,-0.04762 -0.09493,-0.616554 -0.04166,-1.344576 0.0017,-0.02303 0.0033,-0.04625 0.0051,-0.06958 2.54e-4,-0.0037 6.27e-4,-0.0074 0.0011,-0.01121 0.0153,-0.190772 0.04003,-0.388961 0.07836,-0.589733 l 0.0025,0.0041 c 0.06714,-0.344483 0.173986,-0.699263 0.337606,-1.034076 l -0.0043,-0.0072 c 0.190838,-0.390094 0.46089,-0.750563 0.837613,-1.037142 l 2.981665,4.938497 c -0.430148,0.203759 -0.869794,0.282522 -1.296215,0.277565 l -2.257654,-3.739326 c -0.147985,0.384991 -0.224745,0.790016 -0.260631,1.161568 l 1.45321,2.406935 c -0.528289,-0.157421 -0.994243,-0.397015 -1.339696,-0.606989 0.109449,0.597287 0.125176,1.137294 0.115354,1.51681 0.051,0.02174 0.102608,0.04287 0.155213,0.06364 1.530941,0.598852 3.009123,0.512195 4.274367,-0.251707 l 0.376923,-0.308118 -3.650599,-5.864956 0.698928,-0.402263 -0.737467,-0.859299 -0.854676,0.533931 c -2.240229,1.35256 -2.308389,3.976557 -2.207966,5.178882 0.0173,0.315983 0.05176,0.65068 0.115277,0.982499 0.06363,0.333217 0.09607,0.666197 0.10009,0.990934 -2.68e-4,0.0061 1.9e-4,0.01165 2.61e-4,0.01744 -9.5e-5,0.0084 4.7e-5,0.01708 1.4e-4,0.02532 0.0029,0.194954 -0.0041,0.404394 -0.0268,0.622127 -0.0039,0.03803 -0.0097,0.07529 -0.01419,0.112893 l -0.0014,0.01302 c -0.05407,0.39768 -0.151286,0.748596 -0.292815,1.081554 l -0.0011,0.0095 c -0.07372,0.167654 -0.160275,0.324974 -0.258409,0.472426 -0.128658,0.20009 -0.276214,0.376162 -0.441681,0.522974 -0.03448,0.03231 -0.0692,0.06426 -0.105559,0.0955 l -2.953507,-4.891724 c 0.424329,-0.168479 0.871783,-0.237546 1.340287,-0.204976 l 2.144463,3.551849 c 0.123411,-0.380519 0.191923,-0.810129 0.199965,-1.262603 l -1.229531,-2.036458 c 0.03533,0.0136 0.07103,0.02578 0.106612,0.04021 0.37926,0.151444 0.707823,0.337895 0.962899,0.50421 -0.07282,-0.559292 -0.08076,-1.096917 -0.06744,-1.519596 -0.06184,-0.02716 -0.124625,-0.05426 -0.189123,-0.08055 -1.512153,-0.615082 -3.008677,-0.51955 -4.32746,0.276678 -1.806185,1.090501 -2.200399,3.007325 -2.232846,4.339227 -0.004,-0.0023 -0.0078,-0.0043 -0.01179,-0.0065 -0.0066,0.478727 0.01814,1.072912 0.129224,1.655522 0.06363,0.333217 0.09607,0.666198 0.09991,0.991042 -0.03269,0.422942 -0.18792,0.587735 -0.301799,0.835623 l 0.896985,1.485668 c 0.207803,-0.482189 0.655325,-0.989212 0.711994,-1.563891 z m -2.13379,-3.684577 c -0.53466,-0.217415 -1.067348,-0.34415 -1.590685,-0.384174 l 0.896878,1.485488 c 0.373483,0.15078 0.697806,0.33466 0.950116,0.499224 -0.07264,-0.559399 -0.08094,-1.096807 -0.06725,-1.519703 -0.06196,-0.02735 -0.124731,-0.05443 -0.189053,-0.08083 z"
         inkscape:connector-curvature="0" />
    </g>
  </g>
</svg>
